<svg width="251" height="37" viewBox="0 0 251 37" fill="none" xmlns="http://www.w3.org/2000/svg">
<g clip-path="url(#clip0_429_1929)">
<path d="M8.20312 32.8125H12.3047V24.6094H4.10156V32.8125H0V36.9141H8.20312V32.8125ZM4.10156 4.10156V12.3047H12.3047V4.10156H4.10156Z" fill="#ED497B"/>
<path d="M24.6094 24.6094V36.9141H32.8125V24.6094H36.9141V20.5078H41.0156V24.6094H45.1172V36.9141H53.3203V24.6094H49.2188V20.5078H45.1172V16.4062H49.2188V12.3047H53.3203V0H45.1172V12.3047H41.0156V16.4062H36.9141V12.3047H32.8125V0H24.6094V12.3047H28.7109V16.4062H32.8125V20.5078H28.7109V24.6094H24.6094Z" fill="#ED497B"/>
<path d="M73.8281 4.10156V0H57.4219V4.10156H61.5234V32.8125H57.4219V36.9141H86.1328V24.6094H82.0312V28.7109H77.9297V32.8125H69.7266V4.10156H73.8281Z" fill="#ED497B"/>
<path d="M118.945 32.8125V28.7109H110.742V32.8125H98.4375V24.6094H118.945V16.4062H114.844V12.3047H94.3359V16.4062H90.2344V32.8125H94.3359V36.9141H114.844V32.8125H118.945ZM98.4375 20.5078V16.4062H110.742V20.5078H98.4375Z" fill="#ED497B"/>
<path d="M151.758 32.8125V28.7109H143.555V32.8125H139.453V16.4062H147.656V12.3047H139.453V0H135.352V4.10156H131.25V12.3047H123.047V16.4062H131.25V32.8125H135.352V36.9141H147.656V32.8125H151.758Z" fill="#ED497B"/>
<path d="M184.57 32.8125V28.7109H176.367V32.8125H172.266V16.4062H180.469V12.3047H172.266V0H168.164V4.10156H164.062V12.3047H155.859V16.4062H164.062V32.8125H168.164V36.9141H180.469V32.8125H184.57Z" fill="#ED497B"/>
<path d="M217.383 32.8125V28.7109H209.18V32.8125H196.875V24.6094H217.383V16.4062H213.281V12.3047H192.773V16.4062H188.672V32.8125H192.773V36.9141H213.281V32.8125H217.383ZM196.875 20.5078V16.4062H209.18V20.5078H196.875Z" fill="#ED497B"/>
<path d="M237.891 36.9141V32.8125H233.789V20.5078H237.891V16.4062H241.992V24.6094H250.195V16.4062H246.094V12.3047H233.789V16.4062H229.688V12.3047H221.484V16.4062H225.586V32.8125H221.484V36.9141H237.891Z" fill="#ED497B"/>
</g>
<defs>
<clipPath id="clip0_429_1929">
<rect width="251" height="37" fill="white"/>
</clipPath>
</defs>
</svg>
